<svg width="30" height="30" viewBox="0 0 30 30" fill="none" xmlns="http://www.w3.org/2000/svg">
<path d="M3.75 25V5.625C3.75 5.10417 3.93229 4.66146 4.29688 4.29688C4.66146 3.93229 5.10417 3.75 5.625 3.75H21.875C22.3958 3.75 22.8385 3.93229 23.2031 4.29688C23.5677 4.66146 23.75 5.10417 23.75 5.625V12.5938C23.5417 12.5521 23.3333 12.526 23.125 12.5156C22.9167 12.5052 22.7083 12.5 22.5 12.5H22.1875C22.0833 12.5 21.9792 12.5104 21.875 12.5312V5.625H5.625V19.375H15.0312C15.0104 19.4792 15 19.5833 15 19.6875V20C15 20.2083 15.0052 20.4167 15.0156 20.625C15.026 20.8333 15.0521 21.0417 15.0938 21.25H7.5L3.75 25ZM8.75 10.625H18.75V8.75H8.75V10.625ZM8.75 15.9375H15V14.0625H8.75V15.9375ZM21.5625 24.6875V20.9375H17.8125V19.0625H21.5625V15.3125H23.4375V19.0625H27.1875V20.9375H23.4375V24.6875H21.5625ZM5.625 19.375V5.625V19.375Z" fill="white"/>
</svg>
